<svg xmlns="http://www.w3.org/2000/svg" width="410" height="404" viewBox="0 0 410 404" fill="none">
  <g clip-path="url(#clip0)">
    <path d="M399.641 59.5246L215.309 388.776c-5.847 10.549-20.801 10.671-26.835.222L10.502 59.5972c-6.144-10.65 2.597-23.601 14.359-21.417l184.42 34.601a15.998 15.998 0 0 0 5.81-.001l170.166-34.566c11.75-2.385 20.514 10.544 14.391 21.197Z" fill="url(#paint0_linear)"/>
    <path d="M292.965.312l-128.07 24.682c-2.566.494-4.493 2.52-4.803 5.114l-7.944 67.611a4.786 4.786 0 0 0 5.693 5.273l35.357-6.379c3.055-.552 5.713 2.074 5.062 5.129l-10.517 50.92c-.672 3.251 2.429 6.045 5.588 4.91l21.817-7.874c3.168-1.143 6.45 1.46 5.844 4.756l-16.696 93.903c-.732 4.115 4.434 6.585 6.963 3.037l1.574-2.207 103.996-212.889c1.884-3.852-1.517-8.214-5.738-7.421l-36.461 6.92c-3.21.61-5.891-2.385-4.944-5.512l23.73-81.325c.948-3.25-1.79-6.385-5.084-5.762Z" fill="url(#paint1_linear)"/>
  </g>
  <defs>
    <linearGradient id="paint0_linear" x1="6.00017" y1="32.9999" x2="235" y2="344" gradientUnits="userSpaceOnUse">
      <stop stop-color="#41D1FF"/>
      <stop offset="1" stop-color="#BD34FE"/>
    </linearGradient>
    <linearGradient id="paint1_linear" x1="194.651" y1="8.818" x2="236.076" y2="292.989" gradientUnits="userSpaceOnUse">
      <stop stop-color="#FFEA83"/>
      <stop offset=".083" stop-color="#FFDD35"/>
      <stop offset="1" stop-color="#FFA800"/>
    </linearGradient>
    <clipPath id="clip0">
      <path fill="#fff" d="M0 0h410v404H0z"/>
    </clipPath>
  </defs>
</svg>
